<?xml version="1.0" encoding="UTF-8" standalone="no"?>
<svg
  xmlns="http://www.w3.org/2000/svg"
  width="512"
  height="260"
  viewBox="0 0 135.46666 68.791668"
  version="1.1"
  id="svg879">
  <g
    id="layer1"
    transform="translate(0,-228.20831)">
    <g
      id="g1461"
      transform="translate(-7.6633771,108.76355)">
      <g
        transform="matrix(0.24560855,0,0,0.24560855,98.995239,117.52222)"
        id="g1453">
        <path
          id="path1437"
          style="font-style:normal;font-variant:normal;font-weight:normal;font-stretch:normal;font-size:183.52311707px;line-height:1.25;font-family:Arial;-inkscape-font-specification:Arial;letter-spacing:0px;word-spacing:0px;fill:#000000;fill-opacity:1;stroke:none;stroke-width:4.58807802"
          d="m -371.85947,195.45432 v -95.16678 h 14.42736 v 13.35203 q 4.48054,-6.98965 11.91825,-11.20137 7.4377,-4.301319 16.93645,-4.301319 10.57409,0 17.29491,4.390929 6.81043,4.39094 9.58836,12.2767 11.29098,-16.667629 29.39238,-16.667629 14.15852,0 21.77545,7.885759 7.61692,7.79615 7.61692,24.10533 v 65.32635 h -16.04035 v -59.94969 q 0,-9.67798 -1.61299,-13.88969 -1.52339,-4.30133 -5.64549,-6.90004 -4.1221,-2.59872 -9.67798,-2.59872 -10.03642,0 -16.66762,6.72082 -6.63121,6.6312 -6.63121,21.32739 v 55.28993 h -16.12996 V 133.6228 q 0,-10.75331 -3.94288,-16.12997 -3.94288,-5.37665 -12.90397,-5.37665 -6.81043,0 -12.63514,3.58444 -5.7351,3.58443 -8.33381,10.48447 -2.59872,6.90004 -2.59872,19.89362 v 49.37561 z"/>
        <path
          id="path1439"
          style="font-style:normal;font-variant:normal;font-weight:normal;font-stretch:normal;font-size:183.52311707px;line-height:1.25;font-family:Arial;-inkscape-font-specification:Arial;letter-spacing:0px;word-spacing:0px;fill:#000000;fill-opacity:1;stroke:none;stroke-width:4.58807802"
          d="m -224.80799,147.87093 q 0,-26.43522 14.69618,-39.15996 12.2767,-10.574089 29.93004,-10.574089 19.62479,0 32.0807,12.903969 12.45592,12.81436 12.45592,35.48592 0,18.37023 -5.55588,28.94432 -5.46626,10.48447 -16.04035,16.30918 -10.48447,5.82471 -22.94039,5.82471 -19.98323,0 -32.34953,-12.81436 -12.27669,-12.81436 -12.27669,-36.91969 z m 16.57801,0 q 0,18.28062 7.97537,27.42093 7.97537,9.0507 20.07284,9.0507 12.00786,0 19.98323,-9.14031 7.97537,-9.14031 7.97537,-27.86899 0,-17.65334 -8.06498,-26.70404 -7.97537,-9.14032 -19.89362,-9.14032 -12.09747,0 -20.07284,9.05071 -7.97537,9.0507 -7.97537,27.33132 z"/>
        <path
          id="path1441"
          style="font-style:normal;font-variant:normal;font-weight:normal;font-stretch:normal;font-size:183.52311707px;line-height:1.25;font-family:Arial;-inkscape-font-specification:Arial;letter-spacing:0px;word-spacing:0px;fill:#000000;fill-opacity:1;stroke:none;stroke-width:4.58807802"
          d="m -116.82687,195.45432 v -95.16678 h 14.51697 v 14.42736 q 5.555873,-10.12603 10.21564,-13.35203 4.749377,-3.225989 10.394864,-3.225989 8.154591,0 16.578016,5.197429 l -5.555876,14.96502 q -5.914319,-3.49482 -11.828638,-3.49482 -5.287043,0 -9.498755,3.22599 -4.211713,3.13638 -6.003931,8.78187 -2.68833,8.60264 -2.68833,18.81829 v 49.82366 z"/>
      </g>
      <path
        d="m 138.90427,158.00034 4.09371,0.50621 q -0.9684,3.5875 -3.5875,5.56833 -2.6191,1.98083 -6.6908,1.98083 -5.12814,0 -8.1434,-3.14732 -2.99326,-3.16932 -2.99326,-8.86971 0,-5.89847 3.03727,-9.15583 3.03727,-3.25736 7.8793,-3.25736 4.68796,0 7.6592,3.19133 2.97125,3.19134 2.97125,8.97976 0,0.35215 -0.022,1.05644 h -17.43129 q 0.22009,3.85161 2.17891,5.89847 1.95882,2.04686 4.88604,2.04686 2.17892,0 3.71956,-1.14448 1.54064,-1.14448 2.44302,-3.65353 z m -13.00744,-6.40468 h 13.05146 q -0.26411,-2.94923 -1.49663,-4.42385 -1.89279,-2.28896 -4.90805,-2.28896 -2.72914,0 -4.59993,1.82677 -1.84877,1.82676 -2.04685,4.88604 z"
        style="font-style:normal;font-variant:normal;font-weight:normal;font-stretch:normal;font-size:183.52311707px;line-height:1.25;font-family:Arial;-inkscape-font-specification:Arial;letter-spacing:0px;word-spacing:0px;fill:#000000;fill-opacity:1;stroke:none;stroke-width:1.12687123"
        id="path1443"
      />
      <path
        id="path1042-5"
        d="m 80.003079,119.5273 16.96577,29.38543 -3.18383,9.85573 30.795791,29.38544 -14.74984,-29.38544 3.18383,-9.85573 z"
        style="fill:#ffcc00;fill-opacity:1;stroke:none;stroke-width:0.06498393px;stroke-linecap:butt;stroke-linejoin:miter;stroke-opacity:1"/>
    </g>
  </g>
</svg>
